<svg width="2710" height="367.794" viewBox="0 0 717.021 97.312" xml:space="preserve" xmlns="http://www.w3.org/2000/svg"><path style="fill:#000;stroke-width:.264583" d="M-111.581 433.313c-7.692-1.62-13.859-6.886-16.459-14.054-1.318-3.634-1.231-.8-1.326-43.333l-.088-39.622h13.765l.07 38.563.069 38.563.794 1.563c1.778 3.502 4.058 4.918 7.919 4.921 3.576.003 5.721-1.376 7.363-4.731l.857-1.753.133-38.497.132-38.496 6.82-.071 6.82-.07-.082 39.625c-.088 43.262.032 39.943-1.585 43.933-1.157 2.855-2.363 4.604-4.967 7.202-2.843 2.837-5.22 4.338-8.932 5.642-2.09.733-2.658.817-6.012.88-2.247.042-4.328-.062-5.291-.265zm-105.503-.323c-.109-.11-.198-21.91-.198-48.443v-48.243h12.728c13.765 0 13.824.005 17.676 1.513 3.758 1.47 9.17 5.795 11.363 9.078 1.178 1.765 2.28 5.069 2.672 8.015.408 3.064.334 13.11-.115 15.63-.844 4.732-3.21 8.46-6.859 10.809l-1.296.834.9.66c2.21 1.623 4.663 4.417 5.614 6.395 1.836 3.816 1.899 4.31 1.899 14.8 0 8.37-.055 9.608-.505 11.377-.631 2.484-1.702 5.147-2.847 7.08-.908 1.533-4.718 5.583-6.237 6.629-1.662 1.145-4.546 2.436-6.99 3.129l-2.471.7-12.568.119c-6.912.065-12.657.028-12.766-.082zm25.264-14.462c2.051-.945 3.933-2.875 4.728-4.849.622-1.542.634-1.73.634-9.906 0-8.066-.02-8.382-.604-9.828-.812-2.007-2.39-3.737-4.234-4.643-1.483-.728-1.617-.744-6.87-.828l-5.358-.086v15.322c0 8.426.09 15.413.198 15.525.11.112 2.402.156 5.094.098 4.615-.1 4.981-.146 6.412-.805zm-1.508-42.56c2.808-.52 4.418-1.737 5.643-4.267.994-2.054 1.35-4.489 1.354-9.283.006-5.636-.37-7.497-1.953-9.643-2.095-2.843-4.45-3.583-11.007-3.454l-4.1.08-.07 13.097c-.037 7.203-.011 13.246.058 13.428.164.427 7.82.459 10.075.042zm164.076 56.997c-.097-.097-.176-19.028-.176-42.068v-41.893h-16.14v-12.7H1v12.693l-8.268.07-8.269.07-.067 42.002-.066 42.003h-6.702c-3.687 0-6.782-.08-6.879-.177zm80.38-.154c-.068-.182-.154-19.083-.19-42.003l-.065-41.671-7.994-.07-7.995-.07-.075-6.237c-.042-3.43-.026-6.285.035-6.346.06-.06 10.508-.11 23.217-.11h23.107v12.7H64.764v84.138h-6.756c-5.16 0-6.784-.078-6.88-.33zm69.376.156c-.098-.098-.178-21.887-.178-48.42v-48.243h41.275v12.7h-27.517v28.576h24.077v12.965h-24.077v28.84h27.526l-.07 6.813-.071 6.813-20.394.067c-11.216.038-20.473-.012-20.571-.11zm83.078-.003c-.097-.096-.177-21.891-.177-48.432v-48.257l14.354.093c14.027.092 14.399.107 16.338.694 4.913 1.488 9.384 4.811 12.234 9.094 2.122 3.19 3.112 5.76 3.662 9.506.434 2.96.165 16.808-.365 18.742-1.644 6.005-4.908 10.43-10.477 14.207-.115.077.678 2.568 4.849 15.221 6.29 19.085 9.411 28.701 9.411 28.996 0 .234-1.815.313-7.15.313h-7.15l-.29-.727c-.16-.4-.637-1.859-1.06-3.241-1.353-4.422-1.73-5.636-2.553-8.202a4511.609 4511.609 0 0 1-6.635-21.035l-2.57-8.202-4.42-.072-4.42-.073v41.552h-6.702c-3.687 0-6.782-.079-6.88-.176zm26.886-54.205c3.144-1.262 5.158-3.816 5.748-7.29.183-1.08.262-4.305.208-8.467-.082-6.325-.124-6.817-.711-8.31-.841-2.142-3.074-4.363-5.074-5.049-1.231-.422-2.288-.494-7.39-.5l-5.953-.008-.069 15.169-.068 15.169 6.022-.103c5.165-.089 6.201-.176 7.287-.612zm62.283 54.21c-.1-.099-.181-21.89-.181-48.424V336.3l20.571.068 20.571.067v12.7l-13.694.069-13.694.068.068 14.484.068 14.483 11.977.07 11.978.068-.071 6.414-.071 6.413-11.97.069-11.972.069-.067 20.833-.068 20.833-6.632.07c-3.648.04-6.714-.01-6.813-.11zm82.811-.003c-.098-.098-.178-21.888-.178-48.42v-48.243h13.757l.067 41.473.067 41.474 13.697.068 13.696.069-.07 6.81-.07 6.81-20.394.069c-11.217.037-20.474-.013-20.572-.11zm91.368-20.586v-20.77l-2.66-7.876c-1.463-4.331-3.482-10.316-4.486-13.299a9208.41 9208.41 0 0 0-6.1-17.992c-4.76-14.002-5.275-15.552-5.275-15.898 0-.14 3.015-.241 7.123-.241h7.122l.535 1.654c.294.909.649 2.07.789 2.58.277 1.007 3.842 13.325 5.092 17.594.426 1.455 1.62 5.563 2.654 9.128 1.034 3.565 1.96 6.57 2.058 6.678.099.107.754-1.738 1.456-4.101s1.904-6.38 2.671-8.927a1302.5 1302.5 0 0 0 2.364-7.937c1.852-6.328 2.06-7.031 3.063-10.32a319.299 319.299 0 0 0 1.437-4.828l.428-1.521h7.269c3.998 0 7.268.052 7.268.115s-.13.45-.29.86c-.293.752-2.785 7.889-5.388 15.429-.778 2.256-2.269 6.542-3.312 9.525a891.85 891.85 0 0 0-2.65 7.673c-1.85 5.517-6.895 19.916-7.076 20.196-.11.17-.26 9.894-.334 21.608l-.132 21.3-6.813.07-6.813.07z" transform="translate(217.282 -336.275)"/></svg>