<svg width="45" height="48" fill="none" xmlns="http://www.w3.org/2000/svg"><g clip-path="url(#a)"><path d="m15.87 20.552-6.664-4.009L0 0l15.87 20.552Z" fill="#0C6390"/><path d="m15.865 20.545 6.634-3.92L0 0l15.865 20.545Z" fill="#0C78A7"/><path d="m22.5 16.625-6.865-12.29L0 0l22.456 16.596.044.029Z" fill="#3E89C3"/><path d="m22.5 16.624-.002-10.745-3.815 3.925 3.817 6.82Z" fill="#63AFE0"/><path d="M12.624 18.572 8.39 22.953l9.286 11.621-5.052-16.002Z" fill="#0C6390"/><path d="m12.612 18.59 5.062 15.982-1.78-14.02-3.282-1.962Z" fill="#0C78A7"/><path d="M17.672 34.583c0-.152-1.808-14.038-1.808-14.038l6.635-3.922-4.827 17.96Z" fill="#3E89C3"/><path d="m17.668 34.58 4.83-17.956-.023 9.386-4.807 8.57Z" fill="#63AFE0"/><path d="m29.123 20.56 6.67-4.013L44.999.004 29.123 20.56Z" fill="#0C78A7"/><path d="m29.134 20.549-6.637-3.925L45 .004 29.134 20.547Z" fill="#3E89C3"/><path d="M22.498 16.624 29.364 4.34 45 .004C33.515 8.55 31.809 9.82 22.498 16.624Z" fill="#63AFE0"/><path d="M22.5 16.624 22.497 5.88l3.813 3.924-3.812 6.82Z" fill="#8ACDD6"/><path d="m32.384 18.579 4.225 4.378-9.282 11.594 5.057-15.972Z" fill="#0C78A7"/><path d="m32.387 18.593-5.06 15.97 1.795-14.017 3.265-1.953Z" fill="#3E89C3"/><path d="M27.33 34.564c0-.152 1.835-14.045 1.835-14.045l-6.666-3.894 4.83 17.939Z" fill="#63AFE0"/><path d="M27.33 34.565 22.5 16.622l-.022 9.399 4.853 8.544Z" fill="#8ACDD6" fill-opacity=".68"/></g><g clip-path="url(#b)"><path d="M6.634 47.678a1.405 1.405 0 0 1-1.033-.911c-.083-.236-.077-.052-.083-2.81l-.006-2.57h.864l.004 2.5.005 2.502.05.101c.111.227.254.319.497.32.224 0 .359-.09.462-.308l.053-.113.009-2.497.008-2.497.428-.004.428-.005-.005 2.57c-.006 2.806.002 2.59-.1 2.85a1.253 1.253 0 0 1-.311.466 1.342 1.342 0 0 1-.56.366c-.132.048-.168.053-.378.057a1.792 1.792 0 0 1-.332-.017Zm-6.622-.02C.006 47.65 0 46.235 0 44.515v-3.13h.799c.864 0 .867.001 1.11.099.235.095.575.376.712.589.074.114.143.329.168.52.026.198.02.85-.007 1.013-.053.307-.202.549-.43.701l-.082.054.056.043c.14.105.293.286.353.415.115.247.119.28.119.96 0 .542-.003.623-.032.737a1.89 1.89 0 0 1-.178.46 2.314 2.314 0 0 1-.392.43 1.652 1.652 0 0 1-.438.202l-.156.046-.788.008c-.434.004-.795.001-.802-.006Zm1.586-.939a.623.623 0 0 0 .297-.314c.039-.1.04-.112.04-.643 0-.523-.002-.543-.038-.637a.579.579 0 0 0-.266-.301c-.093-.047-.102-.048-.431-.054l-.337-.005v.993c0 .547.006 1 .013 1.007.007.007.15.01.32.006.29-.006.312-.009.402-.052Zm-.095-2.76a.442.442 0 0 0 .355-.277c.062-.133.084-.29.085-.602 0-.365-.024-.486-.123-.625-.132-.184-.28-.232-.69-.224l-.258.005-.005.85c-.002.467 0 .859.004.87.01.028.49.03.632.003Zm10.298 3.697c-.006-.007-.011-1.234-.011-2.729v-2.716h-1.013v-.824h2.922v.823l-.519.005-.519.004-.004 2.724-.004 2.724h-.42c-.232 0-.426-.005-.432-.011Zm5.044-.01a240.29 240.29 0 0 1-.012-2.724l-.004-2.703-.501-.004-.502-.005-.005-.404a6.328 6.328 0 0 1 .002-.412c.004-.004.66-.007 1.457-.007h1.45v.824h-1.029v5.456h-.424c-.324 0-.426-.005-.432-.022Zm4.354.01c-.006-.007-.01-1.42-.01-3.14v-3.13h2.59v.825h-1.727v1.853h1.511v.84h-1.511v1.871h1.727l-.004.442-.005.441-1.28.005a39.355 39.355 0 0 1-1.29-.007Zm5.214 0c-.006-.007-.01-1.42-.01-3.142v-3.129l.9.006c.88.006.904.007 1.025.045.309.096.59.312.768.59a1.4 1.4 0 0 1 .23.616c.027.192.01 1.09-.023 1.216-.103.39-.308.676-.657.921-.008.005.042.167.304.987.395 1.238.59 1.861.59 1.88 0 .016-.113.021-.448.021h-.449l-.018-.047a4.34 4.34 0 0 1-.067-.21 35.23 35.23 0 0 0-.16-.532c-.074-.239-.232-.759-.416-1.364l-.162-.532-.277-.005-.277-.005v2.695h-.421c-.231 0-.426-.005-.432-.011Zm1.688-3.516a.59.59 0 0 0 .36-.473c.012-.07.017-.279.014-.549-.006-.41-.008-.442-.045-.539a.61.61 0 0 0-.319-.327c-.077-.027-.143-.032-.463-.033h-.374l-.004.984-.005.983.378-.006c.325-.006.39-.012.458-.04Zm3.909 3.516a221.2 221.2 0 0 1-.012-3.14v-3.13l1.291.005 1.291.005v.823l-.86.005-.859.004.005.94.004.938.752.005.751.005-.004.415-.005.416-.75.005-.752.004-.004 1.351-.005 1.351-.416.005a4.04 4.04 0 0 1-.427-.007Zm5.197 0a228.02 228.02 0 0 1-.011-3.14v-3.13h.863l.004 2.69.004 2.69.86.005.86.004-.005.442-.004.441-1.28.005a39.397 39.397 0 0 1-1.291-.007Zm5.734-1.335v-1.347l-.167-.511a2231.652 2231.652 0 0 1-.664-2.03c-.3-.908-.331-1.008-.331-1.03 0-.01.189-.016.447-.016h.447l.033.107.05.167a255.864 255.864 0 0 0 .486 1.733c.065.232.123.427.129.434.006.006.047-.113.091-.267a173.612 173.612 0 0 1 .316-1.093c.117-.41.13-.456.193-.67l.09-.313.027-.098h.456c.25 0 .456.003.456.007a92.442 92.442 0 0 0-.356 1.056l-.208.618-.167.498a61.867 61.867 0 0 1-.444 1.31c-.007.01-.016.641-.02 1.401l-.009 1.381-.428.005-.427.005V46.32Z" fill="#000"/></g><defs><clipPath id="a"><path fill="#fff" d="M0 0h45v34.583H0z"/></clipPath><clipPath id="b"><path fill="#fff" transform="translate(0 41.385)" d="M0 0h45v6.311H0z"/></clipPath></defs></svg>