<svg width="80" height="83" fill="none" xmlns="http://www.w3.org/2000/svg"><g clip-path="url(#a)"><path d="m28.215 35.358-11.849-6.896L0 0l28.215 35.358Z" fill="#0C6390"/><path d="M28.205 35.346 40 28.6 0 0l28.205 35.346Z" fill="#0C78A7"/><path d="M40 28.602 27.795 7.457 0 0l39.922 28.553.078.049Z" fill="#3E89C3"/><path d="m39.999 28.6-.003-18.486-6.783 6.753L39.999 28.6Z" fill="#63AFE0"/><path d="m22.442 31.951-7.527 7.538 16.51 19.993-8.983-27.53Z" fill="#0C6390"/><path d="m22.423 31.982 8.999 27.496-3.164-24.119-5.835-3.377Z" fill="#0C78A7"/><path d="M31.415 59.498c0-.262-3.213-24.152-3.213-24.152L39.998 28.6l-8.583 30.898Z" fill="#3E89C3"/><path d="M31.41 59.492 39.997 28.6l-.041 16.148-8.546 14.744Z" fill="#63AFE0"/><path d="m51.775 35.372 11.858-6.904L79.999.007 51.775 35.372Z" fill="#0C78A7"/><path d="m51.794 35.352-11.8-6.751L80 .006 51.794 35.352Z" fill="#3E89C3"/><path d="M39.996 28.6 52.203 7.465 80 .007C59.583 14.71 56.55 16.894 39.997 28.6Z" fill="#63AFE0"/><path d="m39.998 28.6-.001-18.485 6.777 6.751-6.776 11.735Z" fill="#8ACDD6"/><path d="m57.573 31.963 7.511 7.533-16.503 19.946 8.992-27.479Z" fill="#0C78A7"/><path d="M57.576 31.989 48.58 59.464l3.192-24.116 5.804-3.36Z" fill="#3E89C3"/><path d="M48.586 59.465c0-.262 3.263-24.164 3.263-24.164l-11.85-6.699 8.587 30.863Z" fill="#63AFE0"/><path d="m48.586 59.467-8.589-30.87-.039 16.17 8.628 14.7Z" fill="#8ACDD6" fill-opacity=".68"/></g><g clip-path="url(#b)"><path d="M11.793 82.027a2.472 2.472 0 0 1-1.836-1.568c-.147-.406-.137-.09-.148-4.835l-.01-4.42h1.536l.008 4.302.008 4.302.088.175c.198.39.453.549.884.549.399 0 .638-.154.821-.528l.096-.196.015-4.295.014-4.295.761-.008.761-.008-.009 4.422c-.01 4.826.004 4.456-.177 4.901-.129.319-.263.514-.554.804a2.395 2.395 0 0 1-.996.63c-.234.081-.297.09-.671.097a3.27 3.27 0 0 1-.59-.03ZM.023 81.99C.01 81.978 0 79.546 0 76.586v-5.383h1.42c1.536 0 1.542 0 1.972.17.42.163 1.023.646 1.268 1.012.132.197.254.566.298.894.046.342.037 1.463-.013 1.744-.094.528-.358.944-.765 1.206l-.145.093.1.074c.247.18.521.493.627.713.205.426.212.481.212 1.651 0 .934-.006 1.073-.056 1.27-.07.277-.19.574-.318.79-.101.17-.526.623-.696.74a2.986 2.986 0 0 1-.78.349l-.275.078L1.446 82c-.77.007-1.412.003-1.424-.01Zm2.818-1.614a1.08 1.08 0 0 0 .527-.54c.07-.173.071-.194.071-1.106 0-.9-.002-.935-.067-1.097a1.007 1.007 0 0 0-.473-.518c-.165-.08-.18-.083-.766-.092l-.598-.01v1.71c0 .94.01 1.72.022 1.732.012.013.268.017.568.011.515-.011.556-.016.716-.09Zm-.168-4.748c.313-.058.493-.194.63-.476.11-.23.15-.501.15-1.036.001-.629-.041-.837-.218-1.076-.233-.317-.496-.4-1.228-.385l-.457.009-.008 1.46c-.004.805-.001 1.479.007 1.499.018.048.872.051 1.124.005Zm18.306 6.36c-.01-.012-.02-2.124-.02-4.695V72.62h-1.8v-1.417h5.195v1.416l-.922.008-.923.008-.007 4.686-.008 4.687h-.747c-.412 0-.757-.01-.768-.02Zm8.968-.018c-.007-.02-.017-2.13-.02-4.687l-.008-4.649-.892-.008-.892-.008-.009-.695a10.44 10.44 0 0 1 .004-.708c.007-.007 1.173-.013 2.59-.013h2.58v1.418h-1.83v9.388h-.754c-.576 0-.757-.009-.768-.037Zm7.74.017c-.01-.01-.02-2.442-.02-5.402v-5.383h4.606v1.418h-3.07v3.188h2.686v1.447h-2.686v3.218h3.071l-.008.76-.008.76-2.275.008c-1.252.004-2.284-.002-2.295-.013Zm9.27 0c-.01-.01-.02-2.442-.02-5.404V71.2l1.602.01c1.565.01 1.606.012 1.823.078a2.56 2.56 0 0 1 1.365 1.014c.236.356.347.643.408 1.061.049.33.019 1.875-.04 2.091-.184.67-.548 1.164-1.17 1.585-.012.009.076.287.542 1.699.701 2.129 1.05 3.202 1.05 3.235 0 .026-.203.035-.798.035h-.798l-.032-.081a7.28 7.28 0 0 1-.119-.362 59.048 59.048 0 0 0-.284-.915 504.59 504.59 0 0 1-.74-2.347l-.288-.915-.493-.008-.493-.008v4.636h-.748c-.41 0-.756-.01-.767-.02Zm3-6.048c.35-.14.575-.426.641-.813.02-.12.03-.48.023-.945-.009-.706-.014-.76-.08-.927-.093-.24-.342-.487-.565-.563-.138-.048-.255-.055-.825-.056l-.664-.001-.008 1.692-.007 1.693.672-.012c.576-.01.692-.02.813-.068Zm6.949 6.048c-.011-.01-.02-2.442-.02-5.402v-5.383l2.295.007 2.295.008v1.418l-1.528.008-1.528.007.008 1.616.007 1.616 1.337.008 1.336.008-.008.715-.008.716-1.335.007-1.336.008-.008 2.325-.007 2.324-.74.008c-.407.004-.75-.002-.76-.013Zm9.24 0c-.012-.01-.02-2.442-.02-5.402v-5.383h1.534l.008 4.627.007 4.628 1.529.007 1.528.008-.008.76-.008.76L68.44 82c-1.252.004-2.285-.001-2.296-.012ZM76.34 79.69v-2.317l-.297-.879a1013.58 1013.58 0 0 0-1.181-3.491c-.532-1.562-.589-1.735-.589-1.774 0-.015.336-.027.795-.027h.794l.06.185c.033.101.073.23.088.288a431.793 431.793 0 0 0 .864 2.981c.116.398.219.733.23.745.011.012.084-.194.162-.457l.298-.996c.086-.284.205-.683.264-.886.207-.706.23-.784.342-1.151.062-.203.134-.446.16-.539l.048-.17h.811c.446 0 .811.006.811.013a153.315 153.315 0 0 0-.633 1.817l-.37 1.063c-.117.333-.25.718-.296.856a98.58 98.58 0 0 1-.79 2.254c-.012.019-.028 1.103-.037 2.41l-.014 2.377-.76.008-.76.008V79.69Z" fill="#000"/></g><defs><clipPath id="a"><path fill="#fff" d="M0 0h80v59.498H0z"/></clipPath><clipPath id="b"><path fill="#fff" transform="translate(0 71.2)" d="M0 0h80v10.857H0z"/></clipPath></defs></svg>