<?xml version="1.0" encoding="UTF-8" standalone="no"?>
<!-- Created with Inkscape (http://www.inkscape.org/) -->

<svg
   width="717.02081mm"
   height="97.31221mm"
   viewBox="0 0 717.02079 97.31221"
   version="1.1"
   id="svg5"
   xml:space="preserve"
   inkscape:version="1.2.2 (732a01da63, 2022-12-09)"
   sodipodi:docname="logo-text.svg"
   xmlns:inkscape="http://www.inkscape.org/namespaces/inkscape"
   xmlns:sodipodi="http://sodipodi.sourceforge.net/DTD/sodipodi-0.dtd"
   xmlns="http://www.w3.org/2000/svg"
   xmlns:svg="http://www.w3.org/2000/svg"><sodipodi:namedview
     id="namedview7"
     pagecolor="#ffffff"
     bordercolor="#000000"
     borderopacity="0.25"
     inkscape:showpageshadow="2"
     inkscape:pageopacity="0.0"
     inkscape:pagecheckerboard="0"
     inkscape:deskcolor="#d1d1d1"
     inkscape:document-units="mm"
     showgrid="false"
     inkscape:zoom="0.34565095"
     inkscape:cx="1378.5583"
     inkscape:cy="162.01315"
     inkscape:window-width="1920"
     inkscape:window-height="974"
     inkscape:window-x="-11"
     inkscape:window-y="-11"
     inkscape:window-maximized="1"
     inkscape:current-layer="layer1" /><defs
     id="defs2" /><g
     inkscape:label="Слой 1"
     inkscape:groupmode="layer"
     id="layer1"
     transform="translate(217.28232,-336.27475)"><path
       style="fill:#000000;stroke-width:0.264583"
       d="m -111.58128,433.31301 c -7.69147,-1.61955 -13.85874,-6.88584 -16.4587,-14.05425 -1.31802,-3.634 -1.23134,-0.80047 -1.32588,-43.33308 l -0.0881,-39.62136 h 6.88234 6.88232 l 0.0696,38.56302 0.0696,38.56302 0.79375,1.56313 c 1.77789,3.50118 4.05786,4.91776 7.91937,4.92046 3.5764,0.003 5.72098,-1.37559 7.362881,-4.73133 l 0.85733,-1.75226 0.132291,-38.49687 0.132292,-38.49687 6.819662,-0.0706 6.819661,-0.0706 -0.0807,39.62585 c -0.08811,43.26193 0.03164,39.94266 -1.585304,43.93292 -1.156917,2.85501 -2.362782,4.6034 -4.967499,7.20227 -2.842524,2.83613 -5.21962,4.33753 -8.931374,5.64108 -2.08966,0.73387 -2.65788,0.81706 -6.01195,0.88014 -2.24729,0.0422 -4.32855,-0.0618 -5.29166,-0.26461 z m -105.5026,-0.32346 c -0.10914,-0.11028 -0.19844,-21.90956 -0.19844,-48.44288 v -48.24235 h 12.72797 c 13.76537,0 13.82408,0.005 17.67639,1.51271 3.75766,1.47066 9.17059,5.7953 11.36295,9.07838 1.17811,1.76424 2.2796,5.06852 2.67179,8.01505 0.40775,3.06327 0.33377,13.11002 -0.11507,15.62862 -0.84338,4.73265 -3.20918,8.46127 -6.85874,10.80979 l -1.29617,0.8341 0.8993,0.66026 c 2.21019,1.62277 4.66349,4.41677 5.61475,6.39451 1.83567,3.81653 1.89912,4.31104 1.89912,14.79991 0,8.36999 -0.0549,9.60877 -0.50456,11.37709 -0.63156,2.48377 -1.70262,5.14715 -2.84697,7.07959 -0.90837,1.53392 -4.71858,5.58392 -6.23702,6.62955 -1.6624,1.14478 -4.54623,2.43563 -6.98995,3.12889 l -2.4715,0.70112 -12.56771,0.11808 c -6.91223,0.065 -12.657,0.0279 -12.76614,-0.0824 z m 25.26395,-14.46183 c 2.05137,-0.94488 3.93314,-2.87443 4.72834,-4.84841 0.62124,-1.54212 0.63323,-1.72961 0.63323,-9.90624 0,-8.06648 -0.0193,-8.38239 -0.60412,-9.8285 -0.81119,-2.00615 -2.38956,-3.73687 -4.23395,-4.64257 -1.48246,-0.728 -1.61634,-0.74414 -6.86974,-0.82812 l -5.35782,-0.0856 v 15.32123 c 0,8.42668 0.0893,15.41306 0.19844,15.52524 0.10914,0.11221 2.4011,0.15632 5.09323,0.098 4.61531,-0.1 4.98144,-0.14592 6.41239,-0.80502 z m -1.50844,-42.55997 c 2.8082,-0.51914 4.41827,-1.73646 5.64308,-4.26657 0.99433,-2.05401 1.34967,-4.4891 1.35462,-9.28317 0.006,-5.63562 -0.37106,-7.4966 -1.95295,-9.64295 -2.09558,-2.84337 -4.45127,-3.58264 -11.00703,-3.45419 l -4.10104,0.0803 -0.0689,13.09687 c -0.0379,7.20328 -0.0119,13.24571 0.0579,13.42761 0.16359,0.42703 7.81897,0.45897 10.07433,0.0421 z m 164.076607,56.99767 c -0.09702,-0.097 -0.176398,-19.02793 -0.176398,-42.06875 v -41.89235 h -8.069791 -8.069792 v -6.35 -6.35 h 23.283332 23.28333262 v 6.34625 6.34621 l -8.26822872,0.0699 -8.2682289,0.0699 -0.06697,42.0026 -0.06697,42.0026 h -6.701948 c -3.686096,0 -6.78135,-0.0794 -6.878346,-0.1764 z m 80.379989,-0.15433 c -0.06869,-0.1819 -0.154252,-19.08307 -0.19013,-42.0026 l -0.06522,-41.67187 -7.994332,-0.07 -7.994358,-0.07 -0.07543,-6.23634 c -0.04151,-3.42998 -0.02593,-6.28573 0.03479,-6.34613 0.06062,-0.0604 10.50835,-0.10981 23.217186,-0.10981 h 23.106934 v 6.35 6.35 h -8.202082 -8.202083 v 42.06875 42.06875 h -6.755183 c -5.161121,0 -6.784657,-0.0781 -6.880092,-0.33073 z m 69.375784,0.15597 c -0.0979,-0.0979 -0.17801,-21.88707 -0.17801,-48.42039 v -48.24235 h 20.6375 20.6375 v 6.35 6.35 h -13.75834 -13.75833 v 14.2875 14.2875 h 12.03854 12.03854 v 6.48229 6.4823 h -12.03854 -12.03854 v 14.41979 14.41979 h 13.7628 13.76281 l -0.0706,6.81302 -0.0706,6.81302 -20.39334,0.0678 c -11.21635,0.0373 -20.47345,-0.0124 -20.57135,-0.11023 z m 83.07755,-0.003 c -0.097,-0.096 -0.1764,-21.89102 -0.1764,-48.43232 v -48.25699 l 14.35365,0.0935 c 14.02688,0.0914 14.3988,0.10718 16.33802,0.69421 4.9128,1.4872 9.38405,4.81073 12.23404,9.09375 2.12222,3.18934 3.11218,5.75887 3.66207,9.50532 0.4345,2.96024 0.16515,16.80842 -0.36454,18.74239 -1.64481,6.00528 -4.90842,10.43033 -10.47787,14.20672 -0.11473,0.0778 0.67865,2.56818 4.84923,15.22162 6.29046,19.0851 9.41165,28.70094 9.41165,28.99563 0,0.23392 -1.81549,0.31353 -7.15031,0.31353 h -7.15029 l -0.29035,-0.7276 c -0.1597,-0.40019 -0.6364,-1.8587 -1.05937,-3.24115 -1.35286,-4.4218 -1.73058,-5.63536 -2.55283,-8.20208 -1.17644,-3.67234 -3.70689,-11.69453 -6.63488,-21.03438 l -2.57132,-8.20208 -4.41929,-0.0725 -4.41928,-0.0726 v 20.7762 20.77619 h -6.70277 c -3.68654,0 -6.78217,-0.0794 -6.87916,-0.1764 z m 26.88672,-54.20527 c 3.14407,-1.26198 5.15768,-3.81616 5.74743,-7.29048 0.18331,-1.07993 0.26271,-4.30382 0.20852,-8.46667 -0.0824,-6.32468 -0.12446,-6.81662 -0.71122,-8.31014 -0.84114,-2.14103 -3.0743,-4.36295 -5.07392,-5.04843 -1.23153,-0.42217 -2.28849,-0.49372 -7.39018,-0.50023 l -5.95313,-0.008 -0.0683,15.16907 -0.0683,15.16909 6.02146,-0.10319 c 5.16491,-0.0885 6.20157,-0.17547 7.28769,-0.61143 z m 62.2823,54.20971 c -0.0995,-0.0985 -0.18084,-21.88961 -0.18084,-48.4238 v -48.24399 l 20.57135,0.0678 20.57136,0.0678 v 6.35 6.35 l -13.69444,0.0685 -13.69446,0.0685 0.0684,14.48356 0.0684,14.48355 11.97711,0.0689 11.97708,0.0688 -0.0708,6.41345 -0.0709,6.41344 -11.97078,0.0688 -11.97081,0.0688 -0.0677,20.83324 -0.0678,20.83324 -6.63218,0.0706 c -3.6477,0.0388 -6.71356,-0.0109 -6.81302,-0.11025 z m 82.81175,-0.003 c -0.0979,-0.0979 -0.17801,-21.88707 -0.17801,-48.42039 v -48.24235 h 6.87834 6.87835 l 0.067,41.47344 0.067,41.47343 13.69666,0.0685 13.69663,0.0685 -0.0706,6.81064 -0.0706,6.81064 -20.39334,0.0678 c -11.21635,0.0373 -20.47345,-0.0124 -20.57135,-0.11023 z m 91.36782,-20.5854 v -20.77022 l -2.65994,-7.8754 c -1.46296,-4.33146 -3.48192,-10.31618 -4.48656,-13.29936 -1.00463,-2.98317 -3.74942,-11.07942 -6.0995,-17.99166 -4.76086,-14.00294 -5.27484,-15.5521 -5.27484,-15.89858 0,-0.13898 3.01485,-0.24101 7.12219,-0.24101 h 7.12216 l 0.53493,1.65365 c 0.29422,0.90951 0.64945,2.07037 0.78944,2.57969 0.27697,1.0078 3.84178,13.32566 5.09196,17.59479 0.42614,1.45521 1.62044,5.56286 2.65398,9.12812 1.03354,3.56526 1.95985,6.57016 2.05846,6.67756 0.0986,0.10739 0.75356,-1.73808 1.45547,-4.10104 0.70189,-2.36297 1.90405,-6.3799 2.67142,-8.92652 0.76737,-2.54661 1.83089,-6.11849 2.36339,-7.9375 1.85227,-6.3274 2.06108,-7.03069 3.06377,-10.31875 0.5547,-1.81901 1.20118,-3.9919 1.43664,-4.82864 l 0.42807,-1.52136 h 7.26863 c 3.99777,0 7.26866,0.0518 7.26866,0.11507 0,0.0633 -0.1306,0.45024 -0.29025,0.8599 -0.29318,0.75239 -2.78537,7.88913 -5.38797,15.4292 -0.77854,2.25557 -2.26899,6.54182 -3.31211,9.525 -1.04312,2.98318 -2.23584,6.43599 -2.65046,7.67292 -1.8496,5.51751 -6.89444,19.91608 -7.07607,20.19583 -0.11047,0.17015 -0.26038,9.8939 -0.33314,21.60833 l -0.13229,21.29896 -6.81302,0.0706 -6.81302,0.0706 z"
       id="path248"
       sodipodi:nodetypes="ssscccccscscccccssssssssscsssssscssssssscssssssssscssssssscsscscsssscccccccccccccssssscccssscccccccssssscccccccccccccccccccccssscscssssssssscsssscccccscccssssccccscccscccccccccccccccccsccsscccccccccsssccssssscsssssssssscsssssssscccc" /></g></svg>
