<svg width="45" height="48" viewBox="0 0 45 48" fill="none" xmlns="http://www.w3.org/2000/svg">
<g clip-path="url(#clip0_112_683)">
<path d="M15.8709 20.5516L9.20617 16.5434L0 9.15527e-05L15.8709 20.5516Z" fill="#0C6390"/>
<path d="M15.8654 20.5446L22.4992 16.6241L0 0L15.8654 20.5446Z" fill="#0C78A7"/>
<path d="M22.4999 16.6247L15.6347 4.33471L0 0.000152588L22.4562 16.5964L22.4999 16.6247Z" fill="#3E89C3"/>
<path d="M22.4997 16.6238L22.4983 5.87875L18.6826 9.8037L22.4997 16.6238Z" fill="#63AFE0"/>
<path d="M12.6237 18.5716L8.38965 22.953L17.6762 34.5741L12.6237 18.5716Z" fill="#0C6390"/>
<path d="M12.6123 18.5895L17.6743 34.5717L15.8945 20.5527L12.6123 18.5895Z" fill="#0C78A7"/>
<path d="M17.6715 34.5833C17.6715 34.431 15.8643 20.5447 15.8643 20.5447L22.499 16.6235L17.6715 34.5833Z" fill="#3E89C3"/>
<path d="M17.668 34.5797L22.498 16.6239L22.475 26.01L17.668 34.5797Z" fill="#63AFE0"/>
<path d="M29.1229 20.5601L35.7929 16.5474L44.999 0.00408936L29.1229 20.5601Z" fill="#0C78A7"/>
<path d="M29.1341 20.5485L22.4969 16.6241L45 0.00346375L29.1341 20.5485Z" fill="#3E89C3"/>
<path d="M22.4979 16.6242L29.3643 4.33858L44.999 0.00402832C33.5154 8.5503 31.8099 9.81995 22.4979 16.6242Z" fill="#63AFE0"/>
<path d="M22.4992 16.6242L22.4983 5.87952L26.3105 9.80357L22.4992 16.6242Z" fill="#8ACDD6"/>
<path d="M32.3843 18.5786L36.6094 22.9569L27.3266 34.5509L32.3843 18.5786Z" fill="#0C78A7"/>
<path d="M32.3867 18.5934L27.3263 34.5632L29.1218 20.546L32.3867 18.5934Z" fill="#3E89C3"/>
<path d="M27.3298 34.5639C27.3298 34.4116 29.165 20.5186 29.165 20.5186L22.4993 16.625L27.3298 34.5639Z" fill="#63AFE0"/>
<path d="M27.3301 34.5649L22.4985 16.6216L22.4766 26.0207L27.3301 34.5649Z" fill="#8ACDD6" fill-opacity="0.679654"/>
</g>
<g clip-path="url(#clip1_112_683)">
<path d="M6.63376 47.6781C6.15105 47.5731 5.76399 47.2315 5.60082 46.7666C5.5181 46.531 5.52354 46.7147 5.51761 43.9564L5.51208 41.3869H5.94401H6.37595L6.38031 43.8878L6.38468 46.3887L6.4345 46.49C6.54608 46.7171 6.68917 46.809 6.93151 46.8091C7.15597 46.8093 7.29056 46.7199 7.39361 46.5023L7.44741 46.3887L7.45571 43.8921L7.46402 41.3955L7.89202 41.3909L8.32002 41.3863L8.31495 43.9561C8.30942 46.7617 8.31694 46.5465 8.21546 46.8053C8.14285 46.9904 8.06717 47.1038 7.9037 47.2723C7.7253 47.4563 7.57612 47.5536 7.34317 47.6382C7.21202 47.6858 7.17636 47.6912 6.96586 47.6953C6.82482 47.698 6.69421 47.6912 6.63376 47.6781ZM0.0124541 47.6571C0.00560447 47.65 0 46.2362 0 44.5155V41.3869H0.798803C1.66271 41.3869 1.6664 41.3872 1.90817 41.485C2.144 41.5804 2.48371 41.8608 2.6213 42.0738C2.69524 42.1882 2.76437 42.4025 2.78898 42.5936C2.81457 42.7922 2.80993 43.4438 2.78176 43.6071C2.72883 43.914 2.58035 44.1558 2.35131 44.3081L2.26996 44.3622L2.3264 44.405C2.46511 44.5103 2.61908 44.6915 2.67878 44.8197C2.79399 45.0672 2.79797 45.0993 2.79797 45.7795C2.79797 46.3223 2.79452 46.4027 2.7663 46.5174C2.72667 46.6784 2.65945 46.8512 2.58763 46.9765C2.53062 47.076 2.29149 47.3386 2.1962 47.4064C2.09186 47.4807 1.91088 47.5644 1.75751 47.6093L1.6024 47.6548L0.813653 47.6625C0.379844 47.6667 0.0193037 47.6643 0.0124541 47.6571ZM1.59801 46.7192C1.72675 46.658 1.84485 46.5328 1.89476 46.4048C1.93375 46.3048 1.9345 46.2926 1.9345 45.7624C1.9345 45.2392 1.93329 45.2188 1.89659 45.125C1.84568 44.9949 1.74662 44.8826 1.63087 44.8239C1.53783 44.7767 1.52943 44.7756 1.19972 44.7702L0.863469 44.7646V45.7583C0.863469 46.3047 0.869073 46.7578 0.875923 46.7651C0.882772 46.7724 1.02661 46.7752 1.19557 46.7714C1.48523 46.765 1.50821 46.762 1.59801 46.7192ZM1.50334 43.9592C1.67958 43.9255 1.78063 43.8465 1.8575 43.6825C1.9199 43.5493 1.9422 43.3913 1.94252 43.0804C1.94289 42.7149 1.91923 42.5943 1.81995 42.4551C1.68843 42.2707 1.54059 42.2227 1.12915 42.2311L0.871771 42.2363L0.867447 43.0856C0.865069 43.5528 0.8667 43.9446 0.871081 43.9564C0.881348 43.9841 1.3618 43.9862 1.50334 43.9592ZM11.8007 47.6555C11.7946 47.6493 11.7897 46.4216 11.7897 44.9273V42.2105H11.2832H10.7768V41.7987V41.3869H12.238H13.6993V41.7985V42.21L13.1804 42.2146L12.6614 42.2191L12.6572 44.943L12.653 47.667H12.2324C12.0011 47.667 11.8068 47.6618 11.8007 47.6555ZM16.8454 47.6455C16.841 47.6337 16.8357 46.408 16.8334 44.9216L16.8293 42.2191L16.3276 42.2146L15.8259 42.21L15.8212 41.8056C15.8186 41.5832 15.8195 41.398 15.8233 41.394C15.8271 41.3901 16.4828 41.3869 17.2804 41.3869H18.7306V41.7987V42.2105H18.2159H17.7011V44.9388V47.667H17.2772C16.9532 47.667 16.8514 47.6619 16.8454 47.6455ZM21.1994 47.6557C21.1932 47.6493 21.1882 46.2362 21.1882 44.5155V41.3869H22.4834H23.7786V41.7987V42.2105H22.9151H22.0517V43.1371V44.0637H22.8072H23.5627V44.4841V44.9044H22.8072H22.0517V45.8396V46.7747H22.9154H23.7792L23.7747 47.2166L23.7703 47.6584L22.4904 47.6628C21.7865 47.6652 21.2055 47.662 21.1994 47.6557ZM26.4133 47.6555C26.4072 47.6492 26.4022 46.2358 26.4022 44.5145V41.385L27.303 41.3911C28.1834 41.397 28.2067 41.398 28.3284 41.4361C28.6367 41.5325 28.9174 41.7481 29.0962 42.0258C29.2294 42.2327 29.2915 42.3993 29.326 42.6423C29.3533 42.8342 29.3364 43.7323 29.3032 43.8577C29.1999 44.2472 28.9951 44.5342 28.6456 44.7791C28.6384 44.7841 28.6882 44.9456 28.9499 45.7662C29.3447 47.0039 29.5406 47.6275 29.5406 47.6466C29.5406 47.6618 29.4266 47.667 29.0918 47.667H28.6431L28.6249 47.6198C28.6148 47.5938 28.5849 47.4992 28.5584 47.4096C28.4735 47.1228 28.4498 47.0441 28.3982 46.8777C28.3243 46.6395 28.1655 46.1193 27.9818 45.5135L27.8204 44.9816L27.543 44.9769L27.2657 44.9722V46.3196V47.667H26.845C26.6137 47.667 26.4194 47.6617 26.4133 47.6555ZM28.1007 44.1402C28.298 44.0583 28.4244 43.8927 28.4614 43.6674C28.4729 43.5973 28.4779 43.3882 28.4745 43.1183C28.4693 42.7081 28.4667 42.6762 28.4298 42.5794C28.3771 42.4405 28.2369 42.2964 28.1114 42.252C28.0341 42.2246 27.9678 42.2199 27.6476 42.2195L27.274 42.219L27.2697 43.2027L27.2654 44.1865L27.6433 44.1798C27.9675 44.174 28.0325 44.1684 28.1007 44.1402ZM32.0095 47.6557C32.0033 47.6494 31.9982 46.2362 31.9982 44.5154V41.3867L33.2892 41.3911L34.5803 41.3955V41.8073V42.2191L33.7208 42.2235L32.8613 42.228L32.8656 43.1673L32.8699 44.1065L33.6216 44.111L34.3733 44.1155L34.3688 44.5314L34.3644 44.9473L33.6131 44.9518L32.8618 44.9562L32.8576 46.3073L32.8533 47.6584L32.4371 47.663C32.2082 47.6655 32.0157 47.6622 32.0095 47.6557ZM37.2067 47.6556C37.2006 47.6492 37.1956 46.2361 37.1956 44.5154V41.3868H37.6273H38.0589L38.0631 44.0764L38.0673 46.7661L38.9269 46.7705L39.7865 46.7749L39.7821 47.2166L39.7777 47.6583L38.4978 47.6627C37.7939 47.6651 37.2129 47.6619 37.2067 47.6556ZM42.941 46.3206V44.9736L42.774 44.4628C42.6822 44.1819 42.5555 43.7938 42.4924 43.6004C42.4294 43.4069 42.2571 42.8818 42.1096 42.4336C41.8108 41.5254 41.7786 41.425 41.7786 41.4025C41.7786 41.3935 41.9678 41.3869 42.2256 41.3869H42.6726L42.7061 41.4941C42.7246 41.5531 42.7469 41.6284 42.7557 41.6614C42.7731 41.7268 42.9968 42.5256 43.0753 42.8025C43.102 42.8968 43.177 43.1632 43.2418 43.3944C43.3067 43.6257 43.3648 43.8205 43.371 43.8275C43.3772 43.8345 43.4183 43.7148 43.4624 43.5615C43.5064 43.4083 43.5818 43.1478 43.63 42.9826C43.6782 42.8175 43.7449 42.5858 43.7783 42.4679C43.8946 42.0575 43.9077 42.0119 43.9706 41.7987C44.0054 41.6807 44.046 41.5398 44.0608 41.4855L44.0876 41.3869H44.5438C44.7947 41.3869 45 41.3902 45 41.3943C45 41.3985 44.9918 41.4235 44.9818 41.4501C44.9634 41.4989 44.807 41.9617 44.6436 42.4507C44.5948 42.597 44.5012 42.875 44.4358 43.0684C44.3703 43.2619 44.2954 43.4858 44.2694 43.566C44.1533 43.9239 43.8367 44.8576 43.8253 44.8758C43.8184 44.8868 43.809 45.5174 43.8044 46.2771L43.7961 47.6584L43.3685 47.663L42.941 47.6675V46.3206Z" fill="black"/>
</g>
<defs>
<clipPath id="clip0_112_683">
<rect width="45" height="34.5833" fill="white"/>
</clipPath>
<clipPath id="clip1_112_683">
<rect width="45" height="6.31086" fill="white" transform="translate(0 41.385)"/>
</clipPath>
</defs>
</svg>
