<svg width="80" height="83" viewBox="0 0 80 83" fill="none" xmlns="http://www.w3.org/2000/svg">
<g clip-path="url(#clip0_13_150)">
<path d="M28.215 35.3575L16.3665 28.4618L0 9.15527e-05L28.215 35.3575Z" fill="#0C6390"/>
<path d="M28.2051 35.3456L39.9986 28.6006L0 0L28.2051 35.3456Z" fill="#0C78A7"/>
<path d="M40.0001 28.6016L27.7953 7.45745L0.000244141 0.000152588L39.9223 28.5528L40.0001 28.6016Z" fill="#3E89C3"/>
<path d="M39.9989 28.6001L39.9964 10.114L33.2129 16.8666L39.9989 28.6001Z" fill="#63AFE0"/>
<path d="M22.4423 31.9511L14.915 39.489L31.4244 59.4824L22.4423 31.9511Z" fill="#0C6390"/>
<path d="M22.4226 31.982L31.4217 59.4782L28.2576 35.3594L22.4226 31.982Z" fill="#0C78A7"/>
<path d="M31.4152 59.4982C31.4152 59.2361 28.2024 35.3457 28.2024 35.3457L39.9976 28.5995L31.4152 59.4982Z" fill="#3E89C3"/>
<path d="M31.4099 59.4919L39.9967 28.6003L39.9558 44.7484L31.4099 59.4919Z" fill="#63AFE0"/>
<path d="M51.7748 35.3717L63.6325 28.4683L79.999 0.00665283L51.7748 35.3717Z" fill="#0C78A7"/>
<path d="M51.7939 35.3522L39.9945 28.6006L80 0.00595093L51.7939 35.3522Z" fill="#3E89C3"/>
<path d="M39.9965 28.6007L52.2035 7.46421L79.9985 0.00691223C59.5831 14.7102 56.5512 16.8945 39.9965 28.6007Z" fill="#63AFE0"/>
<path d="M39.9981 28.6008L39.9966 10.1153L46.7739 16.8664L39.9981 28.6008Z" fill="#8ACDD6"/>
<path d="M57.573 31.9631L65.0842 39.4957L48.5815 59.4423L57.573 31.9631Z" fill="#0C78A7"/>
<path d="M57.5764 31.9886L48.58 59.4635L51.7722 35.3479L57.5764 31.9886Z" fill="#3E89C3"/>
<path d="M48.5863 59.4648C48.5863 59.2027 51.8489 35.3008 51.8489 35.3008L39.9986 28.6022L48.5863 59.4648Z" fill="#63AFE0"/>
<path d="M48.5864 59.4665L39.997 28.5963L39.958 44.7668L48.5864 59.4665Z" fill="#8ACDD6" fill-opacity="0.679654"/>
</g>
<g clip-path="url(#clip1_13_150)">
<path d="M11.7934 82.0268C10.9352 81.8461 10.2471 81.2586 9.95702 80.4588C9.80996 80.0533 9.81963 80.3695 9.80908 75.624L9.79925 71.2033H10.5671H11.335L11.3428 75.5059L11.3505 79.8085L11.4391 79.9829C11.6375 80.3735 11.8919 80.5316 12.3227 80.5319C12.7217 80.5322 12.961 80.3784 13.1442 80.004L13.2398 79.8085L13.2546 75.5133L13.2694 71.2181L14.0303 71.2102L14.7911 71.2023L14.7821 75.6235C14.7723 80.4503 14.7857 80.08 14.6053 80.5252C14.4762 80.8437 14.3416 81.0388 14.051 81.3288C13.7339 81.6452 13.4687 81.8127 13.0545 81.9582C12.8214 82.04 12.758 82.0493 12.3838 82.0564C12.133 82.0611 11.9008 82.0495 11.7934 82.0268ZM0.0221406 81.9907C0.00996351 81.9784 0 79.5462 0 76.5858V71.2033H1.42009C2.95594 71.2033 2.96249 71.2039 3.3923 71.3721C3.81155 71.5362 4.41549 72.0187 4.66009 72.385C4.79154 72.5818 4.91444 72.9505 4.95819 73.2792C5.00369 73.621 4.99543 74.742 4.94536 75.023C4.85126 75.551 4.5873 75.967 4.18011 76.229L4.03549 76.3221L4.13583 76.3958C4.38242 76.5768 4.65614 76.8886 4.76228 77.1092C4.96709 77.5351 4.97417 77.5902 4.97417 78.7605C4.97417 79.6944 4.96804 79.8326 4.91787 80.0299C4.84741 80.307 4.72791 80.6042 4.60023 80.8198C4.49888 80.9909 4.07377 81.4428 3.90435 81.5594C3.71887 81.6872 3.39711 81.8312 3.12446 81.9085L2.84871 81.9868L1.44649 81.9999C0.675278 82.0072 0.0343176 82.0031 0.0221406 81.9907ZM2.84091 80.3772C3.06979 80.2718 3.27974 80.0565 3.36846 79.8362C3.43778 79.6642 3.43911 79.6433 3.43911 78.731C3.43911 77.831 3.43696 77.7957 3.37171 77.6344C3.2812 77.4106 3.1051 77.2175 2.89932 77.1164C2.73392 77.0352 2.71898 77.0334 2.13284 77.024L1.53506 77.0145V78.7239C1.53506 79.6641 1.54502 80.4436 1.5572 80.4561C1.56937 80.4686 1.82509 80.4735 2.12546 80.467C2.6404 80.4559 2.68125 80.4507 2.84091 80.3772ZM2.67261 75.6287C2.98593 75.5707 3.16557 75.4349 3.30222 75.1526C3.41316 74.9235 3.45281 74.6518 3.45336 74.1169C3.45403 73.4881 3.41196 73.2805 3.23547 73.041C3.00166 72.7237 2.73882 72.6413 2.00738 72.6556L1.54982 72.6646L1.54213 74.1258C1.5379 74.9295 1.5408 75.6037 1.54859 75.624C1.56684 75.6716 2.42097 75.6752 2.67261 75.6287ZM20.9791 81.9881C20.9683 81.9772 20.9594 79.8651 20.9594 77.2943V72.6203H20.059H19.1587V71.9118V71.2033H21.7565H24.3542V71.9114V72.6194L23.4317 72.6272L22.5092 72.635L22.5018 77.3214L22.4943 82.0077H21.7465C21.3353 82.0077 20.9899 81.9989 20.9791 81.9881ZM29.9473 81.9708C29.9396 81.9505 29.9301 79.8417 29.9261 77.2845L29.9188 72.635L29.0269 72.6272L28.1349 72.6194L28.1265 71.9236C28.1219 71.5409 28.1236 71.2223 28.1304 71.2156C28.1371 71.2088 29.3028 71.2033 30.7208 71.2033H33.2989V71.9118V72.6203H32.3838H31.4686V77.314V82.0077H30.7149C30.1391 82.0077 29.958 81.999 29.9473 81.9708ZM37.6878 81.9882C37.6768 81.9773 37.6679 79.5462 37.6679 76.5858V71.2033H39.9705H42.2731V71.9118V72.6203H40.738H39.2029V74.2144V75.8085H40.5461H41.8893V76.5317V77.255H40.5461H39.2029V78.8638V80.4727H40.7385H42.2741L42.2662 81.2328L42.2583 81.993L39.983 82.0005C38.7315 82.0047 37.6987 81.9991 37.6878 81.9882ZM46.957 81.9879C46.9461 81.9772 46.9373 79.5455 46.9373 76.5842V71.2L48.5387 71.2104C50.1038 71.2206 50.1453 71.2224 50.3616 71.2879C50.9098 71.4538 51.4086 71.8246 51.7266 72.3025C51.9634 72.6584 52.0738 72.945 52.1352 73.363C52.1837 73.6933 52.1536 75.2384 52.0945 75.4542C51.911 76.1242 51.5469 76.6179 50.9255 77.0393C50.9127 77.0479 51.0012 77.3258 51.4665 78.7376C52.1684 80.867 52.5166 81.9398 52.5166 81.9727C52.5166 81.9988 52.314 82.0077 51.7188 82.0077H50.921L50.8887 81.9265C50.8708 81.8819 50.8176 81.7191 50.7705 81.5649C50.6195 81.0715 50.5774 80.9361 50.4856 80.6498C50.3544 80.24 50.072 79.345 49.7454 78.3029L49.4585 77.3878L48.9654 77.3797L48.4723 77.3716V79.6896V82.0077H47.7245C47.3132 82.0077 46.9678 81.9987 46.957 81.9879ZM49.9568 75.9401C50.3076 75.7993 50.5322 75.5143 50.598 75.1266C50.6185 75.0062 50.6273 74.6465 50.6213 74.182C50.6121 73.4763 50.6074 73.4214 50.5419 73.2548C50.4481 73.0159 50.1989 72.768 49.9758 72.6915C49.8384 72.6444 49.7205 72.6365 49.1513 72.6357L48.4871 72.6348L48.4795 74.3273L48.4718 76.0198L49.1437 76.0082C49.7199 75.9984 49.8356 75.9887 49.9568 75.9401ZM56.9058 81.9884C56.8947 81.9774 56.8856 79.5461 56.8856 76.5856V71.2029L59.1808 71.2105L61.476 71.218V71.9265V72.635L59.9481 72.6426L58.4202 72.6503L58.4278 74.2663L58.4354 75.8822L59.7717 75.8899L61.1081 75.8976L61.1002 76.6132L61.0922 77.3287L59.7566 77.3364L58.421 77.3441L58.4135 79.6685L58.4059 81.9929L57.6659 82.0008C57.2589 82.0051 56.9169 81.9995 56.9058 81.9884ZM66.1453 81.9881C66.1344 81.9771 66.1255 79.5461 66.1255 76.5857V71.2031H66.8929H67.6603L67.6678 75.8304L67.6753 80.4577L69.2035 80.4654L70.7316 80.473L70.7237 81.2329L70.7159 81.9928L68.4405 82.0004C67.1891 82.0045 66.1562 81.999 66.1453 81.9881ZM76.3395 79.6913V77.3739L76.0427 76.4952C75.8795 76.0119 75.6542 75.3442 75.5421 75.0114C75.43 74.6785 75.1238 73.7752 74.8616 73.004C74.3304 71.4416 74.2731 71.2688 74.2731 71.2301C74.2731 71.2146 74.6094 71.2033 75.0677 71.2033H75.8623L75.922 71.3878C75.9549 71.4892 75.9945 71.6188 76.0101 71.6756C76.041 71.788 76.4387 73.1624 76.5782 73.6387C76.6258 73.801 76.759 74.2593 76.8743 74.6571C76.9897 75.0549 77.093 75.3902 77.104 75.4022C77.115 75.4141 77.1881 75.2082 77.2664 74.9446C77.3447 74.681 77.4788 74.2328 77.5645 73.9486C77.6501 73.6645 77.7687 73.266 77.8282 73.063C78.0348 72.3571 78.0581 72.2786 78.17 71.9117C78.2319 71.7088 78.304 71.4664 78.3303 71.373L78.378 71.2033H79.189C79.6351 71.2033 80 71.209 80 71.2161C80 71.2232 79.9854 71.2663 79.9676 71.312C79.9349 71.396 79.6568 72.1922 79.3665 73.0335C79.2796 73.2852 79.1133 73.7634 78.9969 74.0962C78.8805 74.4291 78.7475 74.8143 78.7012 74.9523C78.4948 75.5679 77.932 77.1744 77.9117 77.2056C77.8994 77.2246 77.8827 78.3095 77.8745 79.6165L77.8598 81.9929L77.0996 82.0008L76.3395 82.0087V79.6913Z" fill="black"/>
</g>
<defs>
<clipPath id="clip0_13_150">
<rect width="80" height="59.4982" fill="white"/>
</clipPath>
<clipPath id="clip1_13_150">
<rect width="80" height="10.8574" fill="white" transform="translate(0 71.2)"/>
</clipPath>
</defs>
</svg>
